<svg id="svg" xmlns="http://www.w3.org/2000/svg" xmlns:xlink="http://www.w3.org/1999/xlink" width="400" height="398.44357976653697" viewBox="0, 0, 400,398.44357976653697"><g id="svgg"><path id="path0" d="M170.522 120.819 C 165.284 122.835,161.062 127.023,159.337 131.911 C 158.906 133.134,156.419 146.453,156.420 147.531 C 156.421 147.605,149.756 147.612,141.610 147.547 C 124.552 147.410,123.266 147.578,116.926 150.776 C 109.134 154.706,103.676 160.931,100.999 168.940 L 100.000 171.927 100.000 213.160 C 100.000 254.033,100.007 254.416,100.823 257.060 C 104.012 267.404,112.599 275.446,123.346 278.155 C 127.902 279.303,272.104 279.304,276.654 278.156 C 287.405 275.443,295.988 267.404,299.177 257.060 C 299.993 254.416,300.000 254.033,300.000 213.160 L 300.000 171.927 299.001 168.940 C 296.324 160.931,290.866 154.706,283.074 150.776 C 276.771 147.597,275.543 147.436,258.439 147.559 C 250.266 147.617,243.580 147.605,243.580 147.531 C 243.581 146.450,241.094 133.134,240.663 131.911 C 238.894 126.898,234.293 122.448,228.993 120.624 C 226.808 119.872,225.759 119.845,199.842 119.863 L 172.957 119.882 170.522 120.819 M225.247 136.089 C 226.213 137.062,226.424 137.848,227.561 144.693 C 229.461 156.136,232.223 160.418,238.911 162.288 C 239.874 162.557,240.828 162.923,241.031 163.101 C 241.234 163.279,247.275 163.430,254.455 163.437 C 272.424 163.454,274.628 163.858,278.979 167.928 C 284.041 172.663,284.021 172.484,284.021 213.230 C 284.021 253.601,284.068 253.129,279.543 257.968 C 274.462 263.399,279.008 263.105,200.000 263.107 C 121.732 263.108,126.187 263.364,121.076 258.582 C 115.938 253.777,115.977 254.124,115.978 213.230 C 115.979 172.857,115.932 173.330,120.457 168.492 C 124.642 164.018,127.347 163.455,144.755 163.437 C 166.504 163.414,169.689 161.258,172.439 144.693 C 173.576 137.848,173.787 137.062,174.753 136.089 L 175.816 135.019 200.000 135.019 L 224.184 135.019 225.247 136.089 M196.498 164.844 C 183.621 166.012,171.967 172.214,164.073 182.101 C 162.791 183.706,161.622 184.984,161.474 184.942 C 161.327 184.899,160.463 186.163,159.555 187.750 C 150.656 203.303,151.890 224.002,162.572 238.385 C 165.254 241.996,171.763 248.249,172.840 248.249 C 173.255 248.249,174.327 248.751,175.222 249.365 C 189.036 258.840,210.434 258.852,224.805 249.394 C 225.551 248.904,226.070 248.748,226.070 249.015 C 226.070 249.729,230.456 246.098,233.768 242.642 C 246.045 229.830,249.763 210.489,243.214 193.507 C 241.911 190.128,238.185 183.579,237.727 183.862 C 237.570 183.959,236.704 183.081,235.801 181.912 C 227.135 170.678,210.729 163.554,196.498 164.844 M263.230 172.125 C 257.126 174.961,258.252 184.449,264.808 185.432 C 272.225 186.544,276.141 177.437,270.196 172.902 C 268.522 171.625,265.122 171.246,263.230 172.125 M207.588 181.112 C 228.850 186.617,237.607 212.803,223.855 229.753 C 209.645 247.268,182.326 244.166,172.574 223.930 C 161.371 200.683,182.654 174.656,207.588 181.112 " stroke="none" fill="#343333" fill-rule="evenodd"></path><path id="path1" d="M175.681 1.207 C 133.281 3.336,91.783 10.340,50.000 22.421 C 36.042 26.456,2.357 38.085,1.004 39.335 C 0.296 39.989,10.588 62.014,11.824 62.488 C 12.068 62.582,15.242 61.413,18.877 59.891 C 121.805 16.781,248.227 13.150,355.167 50.232 C 365.254 53.730,372.827 56.646,384.919 61.688 C 386.362 62.289,387.593 62.707,387.655 62.616 C 389.980 59.211,399.171 39.897,398.693 39.420 C 397.746 38.473,368.105 28.075,355.128 24.137 C 296.753 6.425,233.279 -1.686,175.681 1.207 M145.525 39.933 C 109.967 43.128,72.108 51.708,40.050 63.836 C 33.653 66.256,18.701 72.585,18.199 73.086 C 17.161 74.121,30.709 88.716,37.743 94.139 C 47.529 101.684,70.629 114.862,71.774 113.553 C 71.836 113.482,72.096 112.198,72.351 110.700 C 75.641 91.366,89.594 85.230,132.640 84.187 L 143.408 83.927 144.508 90.115 C 145.112 93.519,146.537 101.469,147.674 107.782 C 148.811 114.095,150.814 125.302,152.127 132.685 C 155.414 151.178,155.314 151.027,157.112 140.231 C 159.134 128.096,162.863 122.781,171.150 120.220 C 174.978 119.036,225.022 119.036,228.850 120.220 C 237.138 122.781,240.866 128.096,242.888 140.233 C 243.551 144.216,244.144 147.425,244.205 147.364 C 244.266 147.303,244.682 145.157,245.128 142.595 C 245.574 140.034,248.093 125.856,250.725 111.089 L 255.511 84.241 265.401 84.327 C 308.632 84.703,324.692 91.750,327.057 111.381 C 327.380 114.060,326.983 114.021,331.932 111.857 C 348.921 104.427,368.758 90.028,377.043 79.114 C 380.454 74.620,381.291 73.354,381.025 73.088 C 379.668 71.735,358.372 63.292,345.331 58.937 C 313.954 48.458,273.324 40.511,245.720 39.453 L 240.272 39.245 220.039 63.977 C 208.911 77.579,199.718 88.702,199.611 88.694 C 199.504 88.686,198.628 87.692,197.665 86.485 C 196.702 85.278,194.076 82.068,191.829 79.352 C 186.905 73.398,176.808 61.096,174.153 57.816 C 173.099 56.513,170.910 53.852,169.290 51.902 C 167.669 49.952,164.685 46.319,162.659 43.828 L 158.975 39.300 155.266 39.345 C 153.226 39.370,148.842 39.635,145.525 39.933 M175.155 136.479 C 174.110 137.476,173.951 138.049,172.815 144.942 C 170.847 156.878,166.998 162.101,159.321 163.252 C 157.811 163.479,157.619 163.616,157.786 164.343 C 157.891 164.801,158.682 169.202,159.544 174.125 C 161.513 185.369,161.353 184.969,162.986 182.695 C 179.834 159.235,216.838 158.218,235.387 180.705 C 237.891 183.741,237.850 183.765,238.702 178.794 C 239.069 176.654,239.791 172.571,240.307 169.721 C 241.509 163.083,241.593 163.580,239.155 162.872 C 231.829 160.742,229.012 156.387,227.042 144.142 C 226.057 138.023,225.899 137.472,224.852 136.479 L 223.723 135.409 200.000 135.409 L 176.277 135.409 175.155 136.479 M194.850 180.920 C 166.399 186.121,160.813 224.817,186.654 237.700 C 209.327 249.003,235.386 228.050,229.228 203.466 C 225.435 188.322,209.941 178.161,194.850 180.920 M174.189 255.739 C 174.897 259.645,175.478 262.884,175.481 262.938 C 175.492 263.133,223.735 263.029,223.735 262.833 C 223.735 262.722,224.270 259.726,224.924 256.174 C 226.331 248.529,226.508 248.926,222.684 251.147 C 208.666 259.292,190.215 259.014,176.102 250.446 C 174.464 249.452,173.074 248.638,173.013 248.638 C 172.952 248.638,173.482 251.834,174.189 255.739 M178.397 279.475 C 178.487 279.742,179.978 287.928,181.712 297.665 C 183.446 307.403,185.810 320.623,186.967 327.043 C 191.227 350.691,195.813 376.337,197.509 385.992 C 199.270 396.024,199.502 397.126,199.787 396.840 C 199.874 396.753,202.416 382.764,205.435 365.754 C 208.455 348.743,211.521 331.498,212.249 327.432 C 212.978 323.366,214.381 315.486,215.367 309.922 C 216.353 304.358,217.846 295.996,218.684 291.340 C 219.522 286.683,220.323 282.000,220.465 280.931 L 220.723 278.988 199.479 278.988 C 182.656 278.988,178.268 279.090,178.397 279.475 " stroke="none" fill="#eb2424" fill-rule="evenodd"></path><path id="path2" d="M188.035 135.311 C 194.616 135.371,205.384 135.371,211.965 135.311 C 218.546 135.251,213.161 135.202,200.000 135.202 C 186.839 135.202,181.454 135.251,188.035 135.311 M199.125 180.430 C 199.606 180.523,200.394 180.523,200.875 180.430 C 201.357 180.338,200.963 180.262,200.000 180.262 C 199.037 180.262,198.643 180.338,199.125 180.430 M198.930 241.135 C 199.518 241.224,200.482 241.224,201.070 241.135 C 201.659 241.046,201.177 240.973,200.000 240.973 C 198.823 240.973,198.341 241.046,198.930 241.135 M187.646 263.327 C 194.227 263.386,204.995 263.386,211.576 263.327 C 218.157 263.267,212.772 263.218,199.611 263.218 C 186.449 263.218,181.065 263.267,187.646 263.327 " stroke="none" fill="#a5252c" fill-rule="evenodd"></path><path id="path3" d="M186.868 119.747 C 194.090 119.806,205.910 119.806,213.132 119.747 C 220.355 119.688,214.446 119.639,200.000 119.639 C 185.554 119.639,179.645 119.688,186.868 119.747 M196.016 164.867 C 196.500 164.960,197.201 164.956,197.573 164.859 C 197.945 164.761,197.549 164.685,196.693 164.690 C 195.837 164.694,195.532 164.774,196.016 164.867 M202.631 164.867 C 203.115 164.960,203.815 164.956,204.187 164.859 C 204.559 164.761,204.163 164.685,203.307 164.690 C 202.451 164.694,202.147 164.774,202.631 164.867 M167.294 178.113 L 165.953 179.572 167.412 178.231 C 168.215 177.494,168.872 176.837,168.872 176.772 C 168.872 176.475,168.542 176.755,167.294 178.113 M232.296 178.016 C 233.022 178.765,233.703 179.377,233.810 179.377 C 233.917 179.377,233.411 178.765,232.685 178.016 C 231.959 177.267,231.277 176.654,231.170 176.654 C 231.063 176.654,231.570 177.267,232.296 178.016 M178.390 189.202 L 176.459 191.245 178.502 189.314 C 179.625 188.252,180.545 187.333,180.545 187.271 C 180.545 186.981,180.184 187.304,178.390 189.202 M221.206 189.105 C 222.260 190.175,223.210 191.051,223.317 191.051 C 223.424 191.051,222.649 190.175,221.595 189.105 C 220.541 188.035,219.592 187.160,219.485 187.160 C 219.378 187.160,220.152 188.035,221.206 189.105 M169.381 210.700 C 169.383 211.984,169.456 212.463,169.543 211.763 C 169.629 211.064,169.628 210.014,169.539 209.429 C 169.450 208.844,169.379 209.416,169.381 210.700 M230.471 210.700 C 230.473 211.984,230.546 212.463,230.632 211.763 C 230.719 211.064,230.717 210.014,230.628 209.429 C 230.539 208.844,230.469 209.416,230.471 210.700 M178.210 232.101 C 179.373 233.278,180.411 234.241,180.518 234.241 C 180.625 234.241,179.762 233.278,178.599 232.101 C 177.437 230.924,176.398 229.961,176.291 229.961 C 176.184 229.961,177.048 230.924,178.210 232.101 M221.387 232.198 L 219.261 234.436 221.498 232.309 C 223.577 230.333,223.914 229.961,223.625 229.961 C 223.564 229.961,222.557 230.968,221.387 232.198 M195.623 256.695 C 196.104 256.788,196.892 256.788,197.374 256.695 C 197.855 256.602,197.461 256.526,196.498 256.526 C 195.535 256.526,195.141 256.602,195.623 256.695 M202.626 256.695 C 203.108 256.788,203.896 256.788,204.377 256.695 C 204.859 256.602,204.465 256.526,203.502 256.526 C 202.539 256.526,202.145 256.602,202.626 256.695 M189.008 278.891 C 194.839 278.951,204.382 278.951,210.214 278.891 C 216.046 278.830,211.274 278.781,199.611 278.781 C 187.947 278.781,183.176 278.830,189.008 278.891 " stroke="none" fill="#752c2c" fill-rule="evenodd"></path><path id="path4" d="M197.957 164.489 C 199.081 164.568,200.919 164.568,202.043 164.489 C 203.166 164.411,202.247 164.346,200.000 164.346 C 197.753 164.346,196.834 164.411,197.957 164.489 M166.905 178.113 L 165.564 179.572 167.023 178.231 C 167.826 177.494,168.482 176.837,168.482 176.772 C 168.482 176.475,168.153 176.755,166.905 178.113 M232.685 178.016 C 233.411 178.765,234.092 179.377,234.199 179.377 C 234.306 179.377,233.800 178.765,233.074 178.016 C 232.348 177.267,231.666 176.654,231.559 176.654 C 231.452 176.654,231.959 177.267,232.685 178.016 M169.777 210.700 C 169.779 212.198,169.850 212.764,169.934 211.956 C 170.018 211.149,170.017 209.923,169.931 209.233 C 169.845 208.542,169.776 209.202,169.777 210.700 M230.089 210.700 C 230.090 212.198,230.161 212.764,230.245 211.956 C 230.329 211.149,230.328 209.923,230.242 209.233 C 230.156 208.542,230.087 209.202,230.089 210.700 M198.152 257.095 C 199.168 257.176,200.832 257.176,201.848 257.095 C 202.865 257.015,202.033 256.950,200.000 256.950 C 197.967 256.950,197.135 257.015,198.152 257.095 " stroke="none" fill="#c4242c" fill-rule="evenodd"></path></g></svg>